<?xml version="1.0" encoding="utf-8"?>
<!-- Generator: Adobe Illustrator 23.1.1, SVG Export Plug-In . SVG Version: 6.00 Build 0)  -->
<svg version="1.1" id="Layer_1" xmlns="http://www.w3.org/2000/svg" xmlns:xlink="http://www.w3.org/1999/xlink" x="0px" y="0px"
	 viewBox="0 0 177.61 32.62" style="enable-background:new 0 0 177.61 32.62;" xml:space="preserve">
<style type="text/css">
	.st0{fill:none;}
	.st1{enable-background:new    ;}
</style>
<rect x="-0.08" y="2.15" class="st0" width="177.56" height="28.25"/>
<g class="st1">
	<path d="M19.51,16.73H8.46V28.5c0,0.4-0.32,0.72-0.72,0.72H5.9c-0.4,0-0.72-0.32-0.72-0.72V8.92c0-4.79,2.63-6.7,7.67-6.7
		c2.12,0,5.51,0.07,7.02,0.22c0.22,0.04,0.36,0.29,0.36,0.5v1.8c0,0.25-0.14,0.43-0.4,0.43h-6.95c-3.82,0-4.43,1.01-4.43,3.74v5
		h11.05c0.4,0,0.72,0.32,0.72,0.72v1.37C20.23,16.4,19.91,16.73,19.51,16.73z"/>
	<path d="M34.13,29.47c-5.83,0-9.21-3.1-9.21-9.97V3.16c0-0.36,0.29-0.68,0.68-0.68h1.94c0.36,0,0.68,0.29,0.68,0.68V19.5
		c0,4.64,1.44,7.16,5.9,7.16s5.9-2.48,5.9-7.16V3.16c0-0.36,0.29-0.68,0.68-0.68h1.94c0.36,0,0.68,0.29,0.68,0.68V19.5
		C43.34,26.38,39.96,29.47,34.13,29.47z"/>
	<path d="M65.34,5.28h-7.02V28.5c0,0.36-0.25,0.72-0.65,0.72h-1.98c-0.36,0-0.65-0.32-0.65-0.72V5.28h-7.02
		c-0.4,0-0.72-0.18-0.72-0.58V3.12c0-0.36,0.32-0.65,0.72-0.65h17.31c0.4,0,0.68,0.25,0.68,0.65v1.58
		C66.02,5.07,65.73,5.28,65.34,5.28z"/>
	<path d="M79.2,29.47c-5.83,0-9.21-3.1-9.21-9.97V3.16c0-0.36,0.29-0.68,0.68-0.68h1.94c0.36,0,0.68,0.29,0.68,0.68V19.5
		c0,4.64,1.44,7.16,5.9,7.16s5.9-2.48,5.9-7.16V3.16c0-0.36,0.29-0.68,0.68-0.68h1.94c0.36,0,0.68,0.29,0.68,0.68V19.5
		C88.41,26.38,85.03,29.47,79.2,29.47z"/>
	<path d="M111.74,29.22h-2.3c-0.43,0-0.65,0-0.94-0.47l-6.44-10.73c-0.11,0-0.22,0-0.32,0c-0.22,0-0.4,0-0.61,0
		c-1.19,0-2.05-0.04-3.96-0.11V28.5c0,0.36-0.25,0.72-0.65,0.72h-1.94c-0.36,0-0.65-0.32-0.65-0.72V3.3c0-0.5,0.22-0.72,0.86-0.79
		c1.55-0.18,4.25-0.29,6.34-0.29c5.69,0,10.08,1.91,10.08,7.74v0.25c0,4.03-2.38,6.41-5.65,7.27l6.55,10.94
		c0.07,0.11,0.11,0.22,0.11,0.32C112.21,29,112.03,29.22,111.74,29.22z M107.96,9.96c0-3.6-2.34-4.79-6.84-4.79
		c-1.12,0-3.1,0-3.96,0.11v9.86c1.58,0.04,3.13,0.07,3.96,0.07c4.43,0,6.84-1.12,6.84-5V9.96z"/>
	<path d="M131.11,29.29c-1.37,0.14-4.89,0.18-7.02,0.18c-5.04,0-7.67-1.91-7.67-6.7V8.92c0-4.79,2.63-6.7,7.67-6.7
		c2.12,0,5.51,0.07,7.02,0.22c0.22,0.04,0.36,0.29,0.36,0.5v1.8c0,0.25-0.14,0.43-0.4,0.43h-6.95c-3.82,0-4.43,1.01-4.43,3.74v5
		h11.05c0.4,0,0.72,0.32,0.72,0.72v1.37c0,0.4-0.32,0.72-0.72,0.72H119.7v6.05c0,2.74,0.61,3.74,4.43,3.74h6.95
		c0.25,0,0.4,0.18,0.4,0.43v1.84C131.47,29,131.33,29.25,131.11,29.29z"/>
	<path d="M148.14,29.22h-1.98c-0.36,0-0.65-0.32-0.65-0.72V3.16c0-0.36,0.25-0.68,0.65-0.68h1.98c0.36,0,0.65,0.29,0.65,0.68V28.5
		C148.79,28.86,148.53,29.22,148.14,29.22z"/>
	<path d="M162.07,29.47c-2.74,0-5.51-0.18-6.55-0.36c-0.47-0.07-0.76-0.36-0.76-0.9V3.48c0-0.5,0.29-0.83,0.76-0.9
		c1.04-0.18,3.82-0.36,6.55-0.36c6.66,0,10.91,3.42,10.91,11.2v4.86C172.98,25.98,168.73,29.47,162.07,29.47z M169.7,13.42
		c0-6.52-3.31-8.39-7.63-8.39c-1.69,0-2.81,0.04-4,0.11v21.45c1.15,0.07,2.3,0.07,4,0.07c4.32,0,7.63-1.91,7.63-8.39V13.42z"/>
</g>
</svg>
